<?xml version="1.0" standalone="no"?>
<!DOCTYPE svg PUBLIC "-//W3C//DTD SVG 20010904//EN"
 "http://www.w3.org/TR/2001/REC-SVG-20010904/DTD/svg10.dtd">
<svg version="1.0" xmlns="http://www.w3.org/2000/svg"
 width="500.000000pt" height="500.000000pt" viewBox="0 0 500.000000 500.000000"
 preserveAspectRatio="xMidYMid meet">

<g transform="translate(0.000000,500.000000) scale(0.100000,-0.100000)"
fill="#000000" stroke="none">
<path d="M0 2500 l0 -2500 2500 0 2500 0 0 2500 0 2500 -2500 0 -2500 0 0
-2500z m3460 419 c42 -118 81 -225 84 -237 7 -22 7 -22 -143 -22 l-150 0 -22
60 c-12 33 -25 58 -28 55 -4 -2 -16 -29 -26 -59 -16 -46 -23 -56 -42 -56 -13
0 -23 2 -23 5 0 4 148 415 165 458 6 15 17 17 57 15 l50 -3 78 -216z m-1615
176 c159 -41 292 -149 363 -296 22 -46 43 -96 46 -111 l6 -28 -155 0 c-85 0
-155 3 -155 8 -9 187 -36 269 -108 334 -56 51 -99 62 -232 63 l-115 0 -3 -202
-2 -203 -140 0 -140 0 0 205 0 205 -80 0 c-73 0 -80 2 -80 20 0 20 7 20 368
20 296 0 379 -3 427 -15z m695 5 c0 -5 -7 -10 -15 -10 -13 0 -15 -31 -15 -215
0 -137 -4 -215 -10 -215 -6 0 -10 78 -10 215 0 184 -2 215 -15 215 -8 0 -15 5
-15 10 0 6 18 10 40 10 22 0 40 -4 40 -10z m-1252 -541 c53 -18 61 -93 13
-118 -11 -6 -36 -11 -55 -11 l-36 0 0 70 c0 67 1 70 24 70 12 0 37 -5 54 -11z
m222 -50 c17 -33 29 -66 27 -72 -2 -7 -9 -2 -16 11 -16 30 -80 32 -88 2 -4
-16 -23 -30 -23 -16 0 8 62 136 66 136 2 0 18 -27 34 -61z m176 0 l39 -50 6
58 6 58 1 -75 1 -75 -39 45 c-22 25 -40 48 -40 53 0 4 -4 7 -9 7 -6 0 -12 -24
-14 -52 -3 -45 -4 -43 -5 20 -1 40 2 71 7 68 5 -3 26 -29 47 -57z m171 -46
c-2 -21 -4 -4 -4 37 0 41 2 58 4 38 2 -21 2 -55 0 -75z m203 97 c0 -5 -18 -10
-40 -10 -33 0 -40 -3 -40 -20 0 -16 7 -20 35 -20 19 0 35 -4 35 -10 0 -5 -16
-10 -36 -10 -31 0 -35 -3 -32 -22 2 -19 11 -24 48 -29 l45 -6 -52 -1 -53 -2 0
70 0 70 45 0 c25 0 45 -4 45 -10z m155 -121 l40 -6 -47 -2 -48 -1 2 73 1 72 6
-65 6 -65 40 -6z m562 24 c7 -18 9 -33 4 -33 -5 0 -13 9 -16 20 -5 15 -15 20
-40 20 -24 0 -38 -6 -45 -20 -6 -11 -15 -20 -20 -20 -8 0 30 90 54 129 9 14
29 -17 63 -96z m156 -26 c40 -3 39 -4 -10 -5 l-53 -2 0 63 c0 85 14 96 18 13
l3 -65 42 -4z m222 108 c46 -45 19 -115 -45 -115 -65 0 -94 79 -44 119 35 27
59 26 89 -4z m193 -55 l21 -25 1 48 c0 26 5 47 10 47 6 0 10 -28 10 -65 0 -36
-4 -65 -8 -65 -4 0 -26 23 -47 52 l-40 52 -3 -52 c-2 -29 -7 -52 -13 -52 -10
0 -13 123 -2 134 4 4 17 -6 29 -21 12 -15 31 -39 42 -53z m209 73 c14 -6 11
-9 -16 -13 -50 -7 -50 -28 -2 -47 31 -12 41 -21 41 -38 0 -33 -56 -48 -90 -24
-11 8 -7 9 18 4 40 -8 69 10 51 31 -6 8 -17 14 -24 14 -7 0 -23 9 -36 20 l-24
20 24 20 c26 22 31 23 58 13z m207 -4 c48 -22 52 -95 6 -119 -54 -29 -123 23
-104 77 5 15 21 33 34 40 31 16 33 16 64 2z m-2272 -416 l3 -208 105 0 c61 0
125 6 154 14 100 29 170 134 182 275 3 33 7 76 10 94 l5 32 156 0 156 0 -7
-32 c-10 -51 -63 -158 -107 -214 -72 -93 -227 -184 -349 -203 -36 -6 -219 -11
-407 -11 -336 0 -343 0 -343 20 0 18 7 20 80 20 l80 0 0 210 0 210 140 0 140
0 2 -207z m1018 -33 c0 -207 2 -240 15 -240 8 0 15 -4 15 -10 0 -5 -18 -10
-40 -10 -22 0 -40 5 -40 10 0 6 7 10 15 10 13 0 15 33 15 240 0 153 4 240 10
240 6 0 10 -87 10 -240z m526 225 c-3 -8 -9 -22 -12 -30 -5 -13 19 -15 180
-15 181 0 186 1 176 19 -20 39 -14 41 138 41 l147 0 75 -210 75 -210 58 0 c50
0 57 -2 57 -20 0 -20 -7 -20 -285 -20 -278 0 -285 0 -285 20 0 18 7 20 75 20
41 0 75 3 75 8 -1 4 -27 75 -58 157 l-57 150 -194 0 -194 0 -24 -70 c-13 -38
-26 -93 -29 -122 -6 -46 -4 -54 18 -76 25 -25 83 -47 126 -47 15 0 22 -6 22
-20 0 -19 -7 -20 -205 -20 -195 0 -205 1 -205 19 0 15 12 22 50 31 76 18 104
58 174 249 55 148 61 161 84 161 17 0 22 -4 18 -15z"/>
<path d="M1220 2495 c0 -53 1 -55 28 -55 60 0 94 57 56 94 -8 9 -31 16 -50 16
l-34 0 0 -55z"/>
<path d="M1462 2515 c-16 -35 -16 -35 18 -35 l31 0 -16 30 c-9 17 -17 30 -19
30 -1 0 -8 -11 -14 -25z"/>
<path d="M2706 2512 l-17 -32 31 0 c33 0 35 4 16 39 l-14 25 -16 -32z"/>
<path d="M3066 2528 c-21 -30 -20 -44 4 -68 24 -24 53 -26 74 -4 19 18 21 65
4 82 -20 20 -65 14 -82 -10z"/>
<path d="M3692 2538 c-20 -20 -14 -65 10 -82 30 -21 44 -20 68 4 24 24 26 53
4 74 -18 19 -65 21 -82 4z"/>
</g>
</svg>
