<?xml version="1.0" standalone="no"?>
<!DOCTYPE svg PUBLIC "-//W3C//DTD SVG 20010904//EN"
 "http://www.w3.org/TR/2001/REC-SVG-20010904/DTD/svg10.dtd">
<svg version="1.0" xmlns="http://www.w3.org/2000/svg"
 width="500.000000pt" height="500.000000pt" viewBox="0 0 500.000000 500.000000"
 preserveAspectRatio="xMidYMid meet">

<g transform="translate(0.000000,500.000000) scale(0.100000,-0.100000)"
fill="#000000" stroke="none">
<path d="M3280 3137 c0 -2 -38 -108 -85 -236 -47 -128 -85 -235 -85 -238 0 -2
10 -3 22 -1 17 2 28 18 47 67 l24 64 25 -66 24 -67 149 0 c82 0 149 2 149 4 0
4 -146 410 -161 449 -10 24 -16 27 -60 27 -27 0 -49 -1 -49 -3z"/>
<path d="M1050 3091 c0 -19 6 -21 80 -21 l80 0 0 -217 c0 -169 3 -214 12 -205
8 8 54 12 140 12 l128 0 0 206 0 206 128 -4 c105 -3 134 -8 168 -26 85 -44
154 -154 154 -246 0 -17 3 -55 6 -83 l7 -53 152 0 153 0 -12 48 c-44 163 -181
309 -349 371 l-72 26 -387 3 c-386 3 -388 3 -388 -17z"/>
<path d="M2460 3100 c0 -5 7 -10 15 -10 13 0 15 -31 15 -215 0 -137 4 -215 10
-215 6 0 10 78 10 215 0 184 2 215 15 215 8 0 15 5 15 10 0 6 -18 10 -40 10
-22 0 -40 -4 -40 -10z"/>
<path d="M1320 2500 l0 -70 36 0 c64 0 100 36 88 86 -7 28 -54 54 -99 54 -24
0 -25 -2 -25 -70z m98 38 c7 -7 12 -24 12 -40 0 -32 -37 -61 -72 -56 -20 3
-23 9 -26 56 l-3 52 38 0 c22 0 44 -5 51 -12z"/>
<path d="M2087 2563 c-4 -3 -7 -35 -7 -70 l0 -63 53 2 c50 1 50 2 10 5 -38 4
-43 7 -43 28 0 19 6 24 33 28 l32 4 -32 1 c-28 2 -33 6 -33 27 0 22 4 25 35
25 19 0 35 5 35 10 0 11 -73 14 -83 3z"/>
<path d="M2965 2558 c-28 -16 -35 -28 -35 -65 0 -62 80 -86 120 -36 22 28 21
66 -3 90 -19 18 -60 24 -82 11z m73 -20 c28 -28 1 -98 -37 -98 -50 0 -79 61
-45 94 18 19 65 21 82 4z"/>
<path d="M3398 2563 c-39 -10 -31 -59 12 -68 65 -14 53 -63 -12 -50 -25 5 -29
4 -18 -4 22 -16 66 -13 81 5 18 21 1 46 -40 58 -20 6 -31 15 -31 27 0 15 8 19
38 19 27 0 33 3 22 10 -16 10 -24 11 -52 3z"/>
<path d="M3593 2560 c-46 -18 -56 -74 -20 -108 46 -43 117 -14 117 46 0 46
-52 80 -97 62z m72 -30 c22 -24 14 -65 -16 -81 -52 -27 -106 29 -74 77 19 30
65 32 90 4z"/>
<path d="M1554 2503 c-14 -32 -28 -61 -31 -65 -2 -5 0 -8 6 -8 5 0 13 9 16 20
5 15 15 20 45 20 30 0 40 -5 45 -20 3 -11 10 -20 15 -20 12 0 -47 124 -60 128
-6 2 -22 -23 -36 -55z m55 7 c10 -29 9 -30 -20 -30 -33 0 -33 0 -17 35 15 33
24 32 37 -5z"/>
<path d="M1740 2495 c0 -77 18 -88 22 -14 l3 50 39 -50 c21 -28 42 -51 47 -51
5 0 9 29 9 65 0 37 -4 65 -10 65 -5 0 -10 -23 -10 -51 l0 -52 -41 52 c-22 28
-45 51 -50 51 -5 0 -9 -29 -9 -65z"/>
<path d="M1960 2495 c0 -37 4 -65 10 -65 6 0 10 28 10 65 0 37 -4 65 -10 65
-6 0 -10 -28 -10 -65z"/>
<path d="M2270 2495 l0 -65 48 2 c43 1 44 2 10 5 l-38 4 0 60 c0 33 -4 59 -10
59 -6 0 -10 -28 -10 -65z"/>
<path d="M2574 2503 c-14 -32 -28 -61 -31 -65 -2 -5 0 -8 6 -8 5 0 13 9 16 20
5 15 15 20 45 20 30 0 40 -5 45 -20 3 -11 10 -20 15 -20 12 0 -47 124 -60 128
-6 2 -22 -23 -36 -55z m55 7 c10 -29 9 -30 -20 -30 -33 0 -33 0 -17 35 15 33
24 32 37 -5z"/>
<path d="M2760 2495 l0 -65 48 2 c43 1 44 2 10 5 l-38 4 0 60 c0 33 -4 59 -10
59 -6 0 -10 -28 -10 -65z"/>
<path d="M3160 2495 c0 -77 18 -88 22 -14 l3 50 39 -50 c21 -28 42 -51 47 -51
5 0 9 29 9 65 0 37 -4 65 -10 65 -5 0 -10 -23 -10 -51 l0 -52 -41 52 c-22 28
-45 51 -50 51 -5 0 -9 -29 -9 -65z"/>
<path d="M1210 2152 l0 -222 -80 0 c-73 0 -80 -2 -80 -20 0 -20 7 -20 344 -20
260 0 363 4 420 15 122 23 261 106 338 203 35 43 93 162 103 210 l7 32 -155 0
-156 0 -6 -57 c-18 -176 -49 -254 -122 -309 -52 -40 -116 -54 -238 -54 l-95 0
0 210 0 210 -128 0 c-86 0 -132 4 -140 12 -9 9 -12 -37 -12 -210z"/>
<path d="M2490 2110 c0 -207 -2 -240 -15 -240 -8 0 -15 -4 -15 -10 0 -5 18
-10 40 -10 22 0 40 5 40 10 0 6 -7 10 -15 10 -13 0 -15 33 -15 240 0 153 -4
240 -10 240 -6 0 -10 -87 -10 -240z"/>
<path d="M2936 2193 c-78 -212 -99 -241 -188 -258 -28 -5 -38 -12 -38 -26 0
-18 11 -19 205 -19 198 0 205 1 205 20 0 15 -7 20 -26 20 -47 0 -105 23 -126
49 -25 32 -20 91 15 196 l24 70 194 3 195 2 53 -147 c30 -82 56 -154 59 -160
3 -10 -15 -13 -72 -13 -69 0 -76 -2 -76 -20 0 -20 7 -20 285 -20 278 0 285 0
285 20 0 18 -7 20 -58 20 l-57 0 -75 210 -75 210 -147 0 c-82 0 -148 -2 -148
-4 0 -3 4 -16 10 -30 l10 -26 -185 0 c-102 0 -185 2 -185 4 0 3 4 16 10 30 8
23 7 26 -13 26 -20 0 -29 -18 -81 -157z"/>
</g>
</svg>
